<svg version="1.1" xmlns="http://www.w3.org/2000/svg" xmlns:xlink="http://www.w3.org/1999/xlink" width="48" height="48"><defs><linearGradient x1="0" y1="0" x2="0" y2="0" gradientUnits="userSpaceOnUse" id="color-1"><stop offset="1" stop-color="#000000" stop-opacity="0"></stop><stop offset="1" stop-color="#000000" stop-opacity="0"></stop></linearGradient><filter id="dropshadow-base"><feColorMatrix type="matrix" values="0 0 0 0 0  0 0 0 0 0  0 0 0 0 0  0 0 0 .8 0"></feColorMatrix> <feOffset dx="0" dy="1"></feOffset> <feGaussianBlur stdDeviation="1"></feGaussianBlur> <feComposite in="SourceGraphic"></feComposite></filter><filter id="dropshadow-banner" x="-10%" y="-10%" width="120%" height="130%"><feColorMatrix type="matrix" values="0 0 0 0 0  0 0 0 0 0  0 0 0 0 0  0 0 0 .4 0"></feColorMatrix> <feOffset dx="0" dy="1"></feOffset> <feGaussianBlur stdDeviation="0.5"></feGaussianBlur> <feComposite in="SourceGraphic"></feComposite></filter></defs><g fill="none" fill-rule="nonzero" stroke="none" stroke-width="none" stroke-linecap="butt" stroke-linejoin="miter" stroke-miterlimit="10" stroke-dasharray="" stroke-dashoffset="0" font-family="none" font-weight="none" font-size="none" text-anchor="none" style="mix-blend-mode: normal"><path d="M2,24c0,-12.15026 9.84974,-22 22,-22c12.15026,0 22,9.84974 22,22c0,12.15026 -9.84974,22 -22,22c-12.15026,0 -22,-9.84974 -22,-22z" id="base 1 5" fill="#2f2f37" stroke-width="1"></path><path d="" fill="url(#color-1)" stroke-width="1"></path><path d="M24,5.2618c-10.3481,0 -18.7382,8.3901 -18.7382,18.7382c0,10.3481 8.3901,18.7382 18.7382,18.7382c10.3481,0 18.7382,-8.3901 18.7382,-18.7382c0,-10.3481 -8.3901,-18.7382 -18.7382,-18.7382zM26.17985,40.2335l-2.17985,-2.17985l-2.17985,2.17985c-7.29677,-0.97673 -13.07692,-6.75695 -14.05365,-14.05365l2.17985,-2.17985l-2.17985,-2.17985c0.97673,-7.29677 6.75695,-13.07692 14.05365,-14.05365l2.17985,2.17985l2.17985,-2.17985c7.29677,0.97673 13.07692,6.75695 14.05365,14.05365l-2.17985,2.17985l2.17985,2.17985c-0.97666,7.29677 -6.75915,13.07699 -14.05365,14.05365zM22.34394,22.34394l11.59243,-8.28031l-8.28031,11.59243l-11.59243,8.28031z" fill="none" stroke-width="0"></path><path d="M42.7382,24c0,10.3481 -8.3901,18.7382 -18.7382,18.7382c-10.3481,0 -18.7382,-8.3901 -18.7382,-18.7382c0,-10.3481 8.3901,-18.7382 18.7382,-18.7382c10.3481,0 18.7382,8.3901 18.7382,18.7382zM40.2335,26.17985l-2.17985,-2.17985l2.17985,-2.17985c-0.97673,-7.2967 -6.75688,-13.07692 -14.05365,-14.05365l-2.17985,2.17985l-2.17985,-2.17985c-7.2967,0.97673 -13.07692,6.75688 -14.05365,14.05365l2.17985,2.17985l-2.17985,2.17985c0.97673,7.2967 6.75688,13.07692 14.05365,14.05365l2.17985,-2.17985l2.17985,2.17985c7.2945,-0.97666 13.07699,-6.75688 14.05365,-14.05365zM22.34394,22.34394l11.59243,-8.28031l-8.28031,11.59243l-11.59243,8.28031z" fill="#03a9f4" stroke-width="0"></path><path d="M2,24c0,-12.15026 9.84974,-22 22,-22c12.15026,0 22,9.84974 22,22c0,12.15026 -9.84974,22 -22,22c-12.15026,0 -22,-9.84974 -22,-22z" id="base 1 1 1" fill="none" stroke-width="1"></path><g id="Layer_1 1 1" fill="#000000" stroke-width="1" font-family="Roboto, sans-serif" font-weight="normal" font-size="14" text-anchor="start"></g><path d="M16,36v-12h30v12z" id="banner 1" fill-opacity="0" fill="#595959" stroke-width="1" filter="url(#dropshadow-banner)"></path><text x="31" y="33" fill="#ffffff" stroke-width="1" font-family="sans-serif" font-weight="bold" font-size="8" text-anchor="middle">BETA</text><rect x="2" y="2" width="44" height="22" fill="none" stroke-width="1"></rect><path d="M2,24v-22h44v22z" fill="none" stroke-width="1"></path><path d="M2,24v-22h44v22z" fill="none" stroke-width="1"></path><path d="M2,24v-22h44v22z" fill="none" stroke-width="1"></path><path d="M2,24v-22h44v22z" fill="none" stroke-width="1"></path></g></svg>